<?xml version="1.0" encoding="utf-8"?><svg xmlns="http://www.w3.org/2000/svg" xmlns:xlink="http://www.w3.org/1999/xlink"><symbol viewBox="0 0 1 1" id="android" xmlns="http://www.w3.org/2000/svg"><path fill-rule="evenodd" clip-rule="evenodd" d="M.22.002C.214.004.21.015.213.027c.002.008.003.01.03.036L.27.09.26.1a.255.255 0 0 0-.091.18L.169.29h.508V.28A.243.243 0 0 0 .582.1L.57.09.6.065C.632.032.635.025.629.014a.02.02 0 0 0-.027-.01.511.511 0 0 0-.036.034L.533.069.517.061A.262.262 0 0 0 .323.06L.309.064.293.05A3.37 3.37 0 0 1 .246.002a.053.053 0 0 0-.026 0Zm.117.185v.02h-.04L.295.188v-.02c0-.002.008-.002.021-.002h.02v.021Zm.213 0v.02H.508v-.04h.039c.002 0 .002.01.002.02ZM.169.334a14.745 14.745 0 0 0 .003.433c.004.01.015.02.023.022a.232.232 0 0 0 .033.003h.026V.87c0 .081 0 .083.008.098.005.01.018.022.03.027.033.016.07-.001.086-.038A.564.564 0 0 0 .38.87V.792h.082l.002.08c0 .06.001.08.003.084.012.029.038.046.066.044A.066.066 0 0 0 .59.953.54.54 0 0 0 .592.869V.793L.618.792A.232.232 0 0 0 .65.789.04.04 0 0 0 .674.766C.676.76.676.746.676.546V.331H.423C.22.332.17.332.17.334ZM.042.337a.069.069 0 0 0-.038.037L0 .384V.54c0 .177 0 .164.013.183.026.035.079.033.104-.005.01-.015.01-.01.01-.178 0-.165 0-.161-.01-.177A.082.082 0 0 0 .094.341.067.067 0 0 0 .042.337Zm.72 0a.07.07 0 0 0-.034.028C.719.38.719.378.719.541c0 .167 0 .163.01.178.012.019.032.03.053.03.026 0 .05-.016.06-.041C.846.699.846.699.846.548L.845.387a.064.064 0 0 0-.042-.05.068.068 0 0 0-.04 0Z"/></symbol><symbol viewBox="0 0 1 1" id="apple" xmlns="http://www.w3.org/2000/svg"><path fill-rule="evenodd" clip-rule="evenodd" d="M.588.002C.494.016.428.059.396.128a.232.232 0 0 0-.02.093V.23h.008A.31.31 0 0 0 .469.21.208.208 0 0 0 .599 0s-.006 0-.01.002ZM.543.307a.351.351 0 0 0-.106.026L.381.352.35.342A59.51 59.51 0 0 1 .3.325.217.217 0 0 0 .219.313C.148.315.092.349.048.418-.015.514-.017.634.042.78A.446.446 0 0 0 .18.978c.028.019.054.025.086.02A.168.168 0 0 0 .308.985.204.204 0 0 1 .416.964c.017.003.042.01.066.018C.524.996.53.997.55.997c.012 0 .016 0 .024-.002A.146.146 0 0 0 .642.949.538.538 0 0 0 .75.757a.194.194 0 0 1-.117-.14.23.23 0 0 1 .001-.09A.185.185 0 0 1 .69.424.153.153 0 0 1 .726.399.203.203 0 0 0 .542.307Z"/></symbol><symbol viewBox="0 0 1 1" id="arrow_chevron_left" xmlns="http://www.w3.org/2000/svg"><path d="M.476 0 0 .5l.476.5.08-.083L.159.5.556.083.476 0Z"/></symbol><symbol viewBox="0 0 1 1" id="arrow_chevron_right" xmlns="http://www.w3.org/2000/svg"><path d="M.524 1 1 .5.524 0l-.08.083L.841.5.444.917.524 1Z"/></symbol><symbol viewBox="0 0 61 32" id="arrow_left" xmlns="http://www.w3.org/2000/svg"><path d="M16.52 0 0 16l16.52 16 1.798-1.74L4.865 17.23H61v-2.46H4.865L18.318 1.74 16.52 0Z"/></symbol><symbol viewBox="0 0 2 1" id="arrow_right" xmlns="http://www.w3.org/2000/svg"><path d="M1.313 1 1.8.5 1.313 0 1.26.054l.397.408H0v.076h1.657L1.26.946 1.313 1Z"/></symbol><symbol viewBox="0 0 1 1" id="check" xmlns="http://www.w3.org/2000/svg"><path d="M.333.783 0 .44.095.342l.238.245L.905 0 1 .098.429.685.333.783Z"/></symbol><symbol viewBox="0 0 1 1" id="close_big" xmlns="http://www.w3.org/2000/svg"><path d="M.9 0 .5.4.1 0 0 .1l.4.4-.4.4.1.1.4-.4.4.4.1-.1L.6.5 1 .1.9 0Z"/></symbol><symbol viewBox="0 0 1 1" id="comment" xmlns="http://www.w3.org/2000/svg"><path d="M0 1V.111C0 .05.05 0 .111 0H.89C.95 0 1 .05 1 .111v.556c0 .061-.05.11-.111.11H.333A.11.11 0 0 0 .267.8L0 1ZM.111.111v.667L.23.688A.11.11 0 0 1 .296.668H.89V.11H.11Z"/></symbol><symbol viewBox="0 0 1 1" id="discord" xmlns="http://www.w3.org/2000/svg"><path d="M.87 1 .763.905.703.85.64.789l.027.093H.102A.103.103 0 0 1 0 .78V.103C0 .046.046 0 .102 0h.666C.825 0 .87.046.87.103V1ZM.633.553a.157.157 0 0 1-.09.06l.033.04A.183.183 0 0 0 .73.577.678.678 0 0 0 .657.286a.246.246 0 0 0-.14-.053L.51.24a.334.334 0 0 1 .124.063.406.406 0 0 0-.257-.046H.376A.374.374 0 0 0 .263.29l-.03.014A.351.351 0 0 1 .364.239L.36.233a.246.246 0 0 0-.14.053.673.673 0 0 0-.071.291A.18.18 0 0 0 .3.653L.333.612a.155.155 0 0 1-.087-.06.179.179 0 0 0 .02.013.413.413 0 0 0 .176.045.34.34 0 0 0 .135-.027.288.288 0 0 0 .056-.03ZM.527.531A.056.056 0 0 1 .48.438a.055.055 0 0 1 .096.037.053.053 0 0 1-.05.056Zm-.182 0a.056.056 0 0 1 0-.111C.358.42.371.425.38.435c.01.01.016.025.016.04a.053.053 0 0 1-.05.056Z"/></symbol><symbol viewBox="0 0 1 1" id="exclamation" xmlns="http://www.w3.org/2000/svg"><path d="M.951.875H.05A.049.049 0 0 1 .007.802l.45-.778a.049.049 0 0 1 .085 0l.451.778a.049.049 0 0 1-.042.073Zm-.45-.73L.132.779h.734L.5.146Zm.048.438H.45V.34H.55v.243Z"/><path d="M.451.632H.55v.097H.45V.632Z"/></symbol><symbol viewBox="0 0 1 1" id="logo" xmlns="http://www.w3.org/2000/svg"><path d="m.195.427.02-.33.339.311-.359.019Z"/><path d="M.55.414.572.083l.338.31-.36.02ZM.522.739l.021-.33.338.311-.359.019Z"/></symbol><symbol viewBox="0 0 1 1" id="mail" xmlns="http://www.w3.org/2000/svg"><path d="M.9.75H.1C.045.75 0 .708 0 .656V.09C.002.04.046 0 .1 0h.8c.055 0 .1.042.1.094v.562C1 .708.955.75.9.75ZM.1.181v.475h.8V.181l-.4.25-.4-.25ZM.14.094.5.319.86.094H.14Z"/></symbol><symbol viewBox="0 0 1 1" id="play" xmlns="http://www.w3.org/2000/svg"><path fill-rule="evenodd" clip-rule="evenodd" d="M.465 0a.502.502 0 0 0-.029.996.498.498 0 0 0 .538-.335A.501.501 0 0 0 .465 0Zm.071.082a.418.418 0 1 1-.072.834.418.418 0 0 1 .072-.834Zm-.14.19a.058.058 0 0 0-.044.045v.366c0 .004.003.01.005.015.014.028.05.04.078.025A10.819 10.819 0 0 0 .714.538a.063.063 0 0 0 .008-.01A.066.066 0 0 0 .73.5.066.066 0 0 0 .722.473.063.063 0 0 0 .714.462 17.542 17.542 0 0 0 .436.277a.063.063 0 0 0-.04-.005Z"/></symbol><symbol viewBox="0 0 1 1" id="telegram" xmlns="http://www.w3.org/2000/svg"><path fill-rule="evenodd" clip-rule="evenodd" d="M.913.001a49.435 49.435 0 0 0-.304.12 898.397 898.397 0 0 0-.537.22.141.141 0 0 0-.054.03c-.023.024-.024.06-.001.086.006.008.021.02.032.025l.103.034.096.032.02.062C.32.777.324.786.333.8c.006.01.016.02.024.023A.066.066 0 0 0 .419.82 1.688 1.688 0 0 1 .534.721l.053.04c.147.108.134.1.154.105a.141.141 0 0 0 .05 0A.087.087 0 0 0 .838.835C.851.818.851.821.871.722A367.08 367.08 0 0 1 1 .078.069.069 0 0 0 .933 0l-.02.001ZM.922.08A10134.145 10134.145 0 0 0 .78.78C.778.788.776.793.773.794.77.795.764.795.759.793A10.74 10.74 0 0 1 .585.664C.531.625.53.623.527.625a10.662 10.662 0 0 0-.135.118L.42.57A33.735 33.735 0 0 0 .788.235C.802.222.804.219.803.213.8.205.795.203.784.208a61.331 61.331 0 0 1-.475.281A12.512 12.512 0 0 0 .087.416l.11-.045A1283.682 1283.682 0 0 0 .922.077v.002Z"/></symbol><symbol viewBox="0 0 1 1" id="user" xmlns="http://www.w3.org/2000/svg"><path d="M.103 1H0V.947C0 .744.161.58.36.58h.206c.199 0 .36.165.36.368V1H.823V.947A.26.26 0 0 0 .566.684H.36a.26.26 0 0 0-.257.263V1Zm.36-.474A.26.26 0 0 1 .206.263.26.26 0 0 1 .463 0 .26.26 0 0 1 .72.263a.26.26 0 0 1-.257.263Zm0-.42a.156.156 0 0 0-.154.157c0 .087.069.158.154.158.085 0 .154-.07.154-.158A.156.156 0 0 0 .463.105Z"/></symbol><symbol viewBox="0 0 32 28" id="warning" xmlns="http://www.w3.org/2000/svg"><path d="M30.445 28H1.559a1.553 1.553 0 0 1-1.35-2.334L14.65.776a1.56 1.56 0 0 1 2.698 0l14.442 24.89A1.553 1.553 0 0 1 30.443 28h.002ZM16.002 4.665 4.264 24.89h23.48L16.001 4.665Zm1.551 14.003h-3.117v-7.78h3.117v7.78Z"/><path d="M14.444 20.225h3.117v3.111h-3.117v-3.111Z"/></symbol><symbol viewBox="0 0 1 1" id="windows" xmlns="http://www.w3.org/2000/svg"><path fill-rule="evenodd" clip-rule="evenodd" d="M.372 0a.528.528 0 0 0-.165.044 30.998 30.998 0 0 0-.095.328L.125.368A.593.593 0 0 1 .263.329.273.273 0 0 1 .298.328c.022 0 .027 0 .038.002a.326.326 0 0 1 .147.063L.578.065A.5.5 0 0 0 .497.02.276.276 0 0 0 .372 0Zm.21.263L.534.428a.346.346 0 0 0 .119.058.34.34 0 0 0 .19-.012A.751.751 0 0 0 .9.452L.905.45.953.286 1 .12.992.124a.389.389 0 0 1-.234.034A.341.341 0 0 1 .629.1L.582.263ZM.264.39a.511.511 0 0 0-.161.04L.095.43.047.597 0 .762.016.756a.443.443 0 0 1 .19-.035.31.31 0 0 1 .164.064A55.025 55.025 0 0 0 .466.453.594.594 0 0 0 .428.429.284.284 0 0 0 .264.39Zm.206.26L.422.813c0 .002.04.027.057.035.078.04.16.04.266.006A.805.805 0 0 0 .791.837 14.105 14.105 0 0 0 .888.508L.874.513a.552.552 0 0 1-.138.035.315.315 0 0 1-.217-.062C.517.486.514.498.469.65Z"/></symbol></svg>