<svg width="1" height="1" viewBox="0 0 1 1" fill="none" xmlns="http://www.w3.org/2000/svg">
<path fill-rule="evenodd" clip-rule="evenodd" d="M0.219573 0.00155465C0.213822 0.00363044 0.21114 0.0148686 0.213479 0.0270819C0.215033 0.035188 0.216056 0.0364364 0.242844 0.0629181L0.270598 0.0903559L0.260939 0.0986527C0.205411 0.146351 0.173084 0.210365 0.169526 0.279667L0.168975 0.290387H0.422803H0.676631L0.676085 0.279667C0.672439 0.208134 0.637472 0.140572 0.582804 0.0994261L0.571272 0.0907482L0.598677 0.0639075C0.631714 0.0315511 0.635488 0.0253523 0.629599 0.0131136C0.624714 0.00296339 0.611687 -0.00150741 0.601906 0.00360979C0.599514 0.00486129 0.583142 0.0201541 0.565525 0.0375926L0.533491 0.0693011L0.517206 0.0608471C0.490173 0.0468169 0.462243 0.041039 0.421442 0.041039C0.386189 0.041039 0.352431 0.0473378 0.322818 0.0594415L0.308545 0.065275L0.293489 0.0495835C0.285207 0.0409532 0.272112 0.0271025 0.264388 0.0188041C0.256665 0.0105058 0.24838 0.00285539 0.245976 0.00180241C0.240755 -0.000484602 0.225615 -0.000625952 0.219573 0.00155465ZM0.33744 0.187292V0.207896L0.316904 0.207451L0.296368 0.207006L0.295913 0.18804C0.295661 0.177609 0.295748 0.168318 0.296106 0.167393C0.296531 0.166297 0.303835 0.165883 0.317099 0.166201L0.33744 0.166688V0.187292ZM0.549692 0.187284L0.549238 0.207006L0.528702 0.207451L0.508167 0.207896V0.187251V0.166606L0.527897 0.166159C0.538748 0.165913 0.548194 0.166129 0.548887 0.166637C0.54958 0.167146 0.549942 0.176437 0.549692 0.187284ZM0.169044 0.333704C0.16861 0.334822 0.16845 0.431129 0.168692 0.547719C0.169106 0.748506 0.169283 0.760095 0.172066 0.767152C0.175621 0.776169 0.186552 0.786558 0.195132 0.789075C0.198546 0.790076 0.213119 0.791303 0.227514 0.7918L0.253687 0.792704L0.253704 0.869113C0.253722 0.950067 0.253856 0.951725 0.261585 0.966665C0.266646 0.976444 0.28036 0.989038 0.291596 0.994222C0.324996 1.00963 0.362776 0.992764 0.377784 0.955737C0.379508 0.951485 0.380186 0.932898 0.380862 0.871214L0.381732 0.792142H0.422803H0.463874L0.464744 0.871214C0.465421 0.932898 0.466099 0.951485 0.467822 0.955737C0.479504 0.984558 0.506054 1.0023 0.533684 0.999758C0.559348 0.997395 0.581681 0.978672 0.589628 0.952857C0.591429 0.947005 0.591889 0.930066 0.591902 0.869113L0.59192 0.792704L0.618093 0.7918C0.632489 0.791303 0.64706 0.790076 0.650475 0.789075C0.659695 0.78637 0.670108 0.776115 0.673571 0.766329C0.676317 0.758567 0.676478 0.746349 0.676478 0.545294V0.332474L0.423158 0.332073C0.218538 0.331747 0.169684 0.332061 0.169044 0.333704ZM0.0419911 0.33669C0.0248185 0.343376 0.0106868 0.357262 0.0036918 0.374319L1.14961e-05 0.383297V0.540529C1.14961e-05 0.717989 -0.000869513 0.705356 0.0127935 0.723659C0.0394737 0.759395 0.0919949 0.75729 0.116589 0.719499C0.126688 0.703981 0.126446 0.708351 0.126446 0.541323C0.126446 0.376398 0.126606 0.379555 0.117517 0.364264C0.112894 0.356485 0.10033 0.344346 0.0930692 0.340643C0.0772817 0.332594 0.0566189 0.330993 0.0419911 0.33669ZM0.762346 0.336405C0.747957 0.341807 0.735284 0.352256 0.727521 0.365123C0.719099 0.379083 0.71916 0.377792 0.71916 0.541323C0.71916 0.708351 0.718919 0.703981 0.729017 0.719499C0.741026 0.737952 0.76123 0.749321 0.782084 0.749361C0.80776 0.74941 0.831673 0.732842 0.842087 0.707789C0.845595 0.699351 0.845595 0.699316 0.846056 0.54847C0.846363 0.448021 0.845948 0.393963 0.844812 0.386739C0.841182 0.363614 0.825742 0.345147 0.802879 0.336577C0.791708 0.33239 0.77325 0.332312 0.762346 0.336405Z" fill="#AAAAAA"/>
</svg>
