<svg width="1" height="1" viewBox="0 0 1 1" fill="none" xmlns="http://www.w3.org/2000/svg">
<path fill-rule="evenodd" clip-rule="evenodd" d="M0.588121 0.00152676C0.494129 0.0155503 0.428125 0.0589149 0.396094 0.127688C0.38292 0.155975 0.37517 0.190599 0.37517 0.221177V0.229825L0.383877 0.229144C0.412555 0.226902 0.444773 0.219648 0.468941 0.209993C0.547544 0.178587 0.594186 0.110859 0.600134 0.0194907C0.601161 0.00370463 0.600884 -0.000191865 0.598744 7.14463e-06C0.598097 6.83783e-05 0.593316 0.000751133 0.588121 0.00152676ZM0.542839 0.306755C0.513602 0.308641 0.501674 0.311613 0.437373 0.333037L0.380665 0.351933L0.349807 0.34168C0.332835 0.33604 0.310841 0.32872 0.300932 0.325415C0.269858 0.315049 0.246851 0.31147 0.21795 0.312506C0.147187 0.315044 0.0921169 0.349198 0.047324 0.418328C-0.0144456 0.513658 -0.0157472 0.634484 0.0434224 0.780355C0.0810816 0.873195 0.129712 0.944111 0.17885 0.977844C0.206759 0.997003 0.232842 1.00327 0.264557 0.998442C0.277322 0.996498 0.289416 0.992624 0.307962 0.984539C0.342747 0.969375 0.358241 0.965398 0.390824 0.963271C0.404381 0.962387 0.408454 0.962475 0.416198 0.963825C0.433131 0.966779 0.458028 0.973552 0.481642 0.98163C0.523513 0.995954 0.529997 0.997438 0.550302 0.997345C0.562444 0.997289 0.566228 0.996869 0.574183 0.994698C0.597625 0.988298 0.618725 0.97411 0.642249 0.948932C0.681272 0.907165 0.718583 0.843684 0.743629 0.776444C0.750444 0.758146 0.750737 0.757154 0.749309 0.757154C0.747462 0.757154 0.729153 0.747433 0.720245 0.741724C0.673566 0.711805 0.642929 0.668335 0.632272 0.616897C0.630175 0.606777 0.629626 0.600808 0.629192 0.583437C0.628604 0.55984 0.629634 0.546151 0.633469 0.526599C0.641665 0.484811 0.661263 0.448299 0.688616 0.42386C0.697787 0.415665 0.711581 0.406223 0.720037 0.40235C0.723523 0.400754 0.726386 0.399218 0.726401 0.398937C0.726472 0.397591 0.712432 0.379554 0.705289 0.371815C0.66354 0.326579 0.604163 0.302799 0.542839 0.306755Z" fill="white"/>
</svg>
