<svg width="1" height="1" viewBox="0 0 1 1" fill="none" xmlns="http://www.w3.org/2000/svg">
<path d="M0.87037 1L0.763465 0.905263L0.703207 0.848947L0.639493 0.789474L0.66567 0.882053H0.101932C0.0454754 0.88185 -0.000144141 0.835705 3.42252e-07 0.778947L3.42252e-07 0.103C-8.62919e-05 0.0462838 0.0455163 0.000203113 0.101932 0L0.768439 0C0.824855 0.000203113 0.870457 0.0462838 0.87037 0.103V1ZM0.633473 0.553053C0.611397 0.582817 0.579616 0.603832 0.543687 0.612421C0.558451 0.631368 0.576251 0.65279 0.576408 0.653C0.636463 0.654276 0.693326 0.62588 0.728598 0.577C0.726792 0.475669 0.702313 0.376048 0.656979 0.285526C0.617067 0.25404 0.568483 0.235665 0.517825 0.232895H0.517249L0.510286 0.240895C0.555535 0.253113 0.597733 0.274737 0.634153 0.304368C0.587812 0.278758 0.536957 0.262455 0.484423 0.256368C0.451034 0.25264 0.41732 0.252976 0.38401 0.257368C0.381655 0.257415 0.379309 0.257662 0.376995 0.258105H0.375529C0.336492 0.262624 0.298403 0.27328 0.262656 0.289684C0.244751 0.297947 0.233757 0.303947 0.233286 0.304158C0.232815 0.304368 0.233286 0.304158 0.233286 0.303789C0.271917 0.273244 0.316484 0.251174 0.364116 0.239L0.358881 0.233H0.358567C0.307909 0.235777 0.259328 0.254152 0.219412 0.285632C0.173913 0.376091 0.149425 0.475752 0.147793 0.577105C0.182626 0.626309 0.239568 0.654814 0.299617 0.653105C0.299617 0.653105 0.31836 0.630158 0.332966 0.611579C0.297942 0.60273 0.267081 0.581885 0.245694 0.552632C0.24606 0.552895 0.251243 0.556421 0.259619 0.561053C0.260182 0.561717 0.260878 0.562255 0.261661 0.562632C0.262325 0.563093 0.263025 0.563498 0.263755 0.563842C0.264583 0.56422 0.265372 0.564678 0.266111 0.565211C0.277792 0.571683 0.289916 0.577312 0.302392 0.582053C0.326112 0.591495 0.350647 0.598718 0.375686 0.603632C0.397609 0.607787 0.419866 0.609901 0.442175 0.609947C0.463091 0.609945 0.483964 0.608007 0.504527 0.604158C0.529293 0.599786 0.55348 0.592581 0.576617 0.582684C0.596603 0.574956 0.615672 0.565018 0.633473 0.553053ZM0.526777 0.530579C0.504 0.532576 0.482339 0.520311 0.472231 0.499694C0.462123 0.479077 0.465641 0.454336 0.48109 0.437392C0.496539 0.420447 0.52075 0.414775 0.542058 0.423107C0.563367 0.431439 0.577402 0.452067 0.577403 0.475053C0.578556 0.504416 0.555924 0.529214 0.526725 0.530579H0.526777ZM0.345217 0.530579C0.316572 0.528069 0.294589 0.503959 0.294589 0.475053C0.294589 0.446146 0.316572 0.422036 0.345217 0.419526C0.358412 0.419567 0.371028 0.424978 0.380189 0.434526C0.390583 0.445372 0.396237 0.459943 0.395894 0.475C0.397106 0.504414 0.374419 0.52927 0.345164 0.530579H0.345217Z" fill="white"/>
</svg>
