<svg width="1" height="1" viewBox="0 0 1 1" fill="none" xmlns="http://www.w3.org/2000/svg">
<path d="M0.951392 0.875H0.0487057C0.0313046 0.875 0.0152255 0.865734 0.00652519 0.850693C-0.00217517 0.835652 -0.00217506 0.81712 0.00652549 0.80208L0.457844 0.0242626C0.466551 0.00924641 0.482617 0 0.5 0C0.517383 0 0.533449 0.00924641 0.542156 0.0242626L0.993474 0.80208C1.00217 0.817113 1.00218 0.835634 0.993487 0.850672C0.984799 0.86571 0.968735 0.874982 0.951343 0.875H0.951392ZM0.500073 0.145797L0.133261 0.777773H0.866983L0.500073 0.145797ZM0.548536 0.583367H0.451123V0.340251H0.548536V0.583367Z" fill="#FF9828"/>
<path d="M0.451366 0.632029H0.54878V0.729257H0.451366V0.632029Z" fill="#FF9828"/>
</svg>
