<svg width="1" height="1" viewBox="0 0 1 1" fill="none" xmlns="http://www.w3.org/2000/svg">
<path fill-rule="evenodd" clip-rule="evenodd" d="M0.465328 0.000633272C0.359701 0.00835413 0.26147 0.0479427 0.179552 0.115805C0.164278 0.128458 0.128438 0.164296 0.116101 0.179253C0.0615984 0.245329 0.0262049 0.31935 0.00967176 0.401833C-0.0167432 0.533615 0.0115334 0.672164 0.0873397 0.782391C0.115621 0.823513 0.151474 0.861775 0.191289 0.893325C0.260702 0.948328 0.347705 0.984788 0.43624 0.995976C0.588151 1.01517 0.738983 0.965039 0.847376 0.859321C0.906423 0.80173 0.947583 0.736919 0.973597 0.660573C1.02785 0.501351 0.997234 0.322178 0.89336 0.190995C0.87413 0.16671 0.844686 0.136086 0.823059 0.117877C0.74524 0.0523544 0.653121 0.0131406 0.551061 0.00209127C0.53331 0.000168714 0.483309 -0.000680763 0.465328 0.000633272ZM0.536262 0.0822607C0.651237 0.0927332 0.754626 0.14802 0.82659 0.237513C0.87566 0.298535 0.9047 0.367171 0.915987 0.448799C0.918187 0.464711 0.919117 0.515224 0.917556 0.534053C0.900674 0.737743 0.739413 0.899866 0.536262 0.917385C0.52069 0.918728 0.479621 0.918754 0.464307 0.91743C0.316876 0.90469 0.187275 0.815371 0.122841 0.682099C0.100663 0.636227 0.0872948 0.58773 0.0825948 0.536095C0.0812771 0.521612 0.0812771 0.478087 0.0825948 0.463604C0.0978328 0.296184 0.20869 0.155577 0.367442 0.102314C0.398934 0.0917479 0.428381 0.0857363 0.467369 0.0819136C0.475907 0.0810764 0.526033 0.0813296 0.536262 0.0822607ZM0.39622 0.271595C0.386703 0.273767 0.374847 0.280394 0.367508 0.287647C0.359841 0.295222 0.353613 0.307094 0.352063 0.317089C0.350651 0.326186 0.350651 0.673513 0.352063 0.68261C0.352673 0.686549 0.354752 0.692644 0.357176 0.697605C0.370949 0.7258 0.407269 0.737653 0.435068 0.723026C0.438519 0.72121 0.501491 0.680015 0.575005 0.631483C0.663811 0.572856 0.71043 0.541485 0.713921 0.538006C0.71681 0.535125 0.720625 0.530233 0.722396 0.527134C0.726317 0.52028 0.729671 0.507699 0.729671 0.49985C0.729671 0.492 0.726317 0.479419 0.722396 0.472565C0.720625 0.469466 0.71681 0.464574 0.713922 0.461693C0.710429 0.458212 0.663564 0.42668 0.574118 0.367629C0.500114 0.318774 0.437932 0.277945 0.435936 0.276897C0.424602 0.270953 0.408471 0.268799 0.39622 0.271595Z" fill="white"/>
</svg>
