<svg width="1" height="1" viewBox="0 0 1 1" fill="none" xmlns="http://www.w3.org/2000/svg">
<path fill-rule="evenodd" clip-rule="evenodd" d="M0.912582 0.0012934C0.901291 0.00362033 0.891803 0.00709376 0.843737 0.0265018C0.794371 0.0464358 0.680182 0.0928386 0.668496 0.0977143C0.664021 0.0995819 0.637265 0.110495 0.609039 0.121966C0.558432 0.142533 0.232771 0.275213 0.139016 0.313462C0.11251 0.324275 0.0823749 0.336523 0.0720482 0.340678C0.0418327 0.352839 0.0300941 0.359508 0.0184818 0.371114C-0.00541492 0.394993 -0.00621477 0.430408 0.0165291 0.45749C0.0231144 0.465331 0.0383392 0.476676 0.0491266 0.481782C0.0534713 0.483839 0.0998365 0.49946 0.152159 0.516497C0.204481 0.533533 0.247625 0.547854 0.248035 0.54832C0.248444 0.548786 0.257384 0.576436 0.2679 0.609765C0.32078 0.777354 0.323837 0.78632 0.333245 0.80146C0.339112 0.810898 0.348899 0.820394 0.356716 0.824228C0.366726 0.82914 0.381131 0.831426 0.391884 0.829812C0.402692 0.828188 0.412628 0.824648 0.419078 0.820125C0.421798 0.818216 0.434672 0.807242 0.447686 0.795737C0.507391 0.742954 0.532503 0.721273 0.533804 0.721383C0.534577 0.721449 0.558582 0.738865 0.587146 0.760085C0.733994 0.869181 0.721249 0.86044 0.741247 0.865761C0.752304 0.868701 0.779789 0.868632 0.791165 0.865633C0.81025 0.860605 0.826626 0.849957 0.838304 0.834983C0.851444 0.818134 0.850578 0.821165 0.870655 0.721783C0.880677 0.672171 0.890811 0.622035 0.893174 0.610371C0.897792 0.58757 0.927085 0.442422 0.935119 0.402523C0.937804 0.389191 0.949913 0.3292 0.962028 0.269209C0.974144 0.209218 0.987382 0.143663 0.991446 0.123531C0.995511 0.1034 0.999201 0.082948 0.999648 0.0780832C1.00356 0.0354447 0.97456 0.00170547 0.93261 7.90395e-05C0.925389 -0.000200919 0.917523 0.000276585 0.912582 0.0012934ZM0.921875 0.0792382C0.921607 0.0804041 0.920282 0.0870843 0.918929 0.0940833C0.917577 0.101082 0.90881 0.144712 0.899447 0.191039C0.876352 0.305309 0.804829 0.659284 0.79182 0.723687C0.78603 0.752349 0.780905 0.777982 0.780429 0.780648C0.779312 0.786909 0.776741 0.791768 0.77371 0.793337C0.770051 0.795234 0.763402 0.794833 0.758571 0.792425C0.755225 0.790757 0.664701 0.72415 0.585256 0.664903C0.531492 0.624807 0.529508 0.623444 0.527344 0.625106C0.52618 0.626 0.497385 0.651273 0.463357 0.681269C0.400412 0.736753 0.391864 0.744189 0.391864 0.743463C0.391864 0.742883 0.419179 0.574199 0.420008 0.569665C0.420553 0.56668 0.427073 0.560183 0.452239 0.537549C0.46959 0.521942 0.492835 0.500993 0.503893 0.490994C0.51495 0.480996 0.55637 0.443662 0.595935 0.408028C0.635499 0.372396 0.67125 0.340166 0.67538 0.336406C0.679511 0.332646 0.696128 0.317661 0.712306 0.303108C0.769598 0.25157 0.775646 0.246091 0.787833 0.234683C0.801538 0.221853 0.803754 0.218705 0.802775 0.213438C0.801285 0.205415 0.795251 0.203604 0.783981 0.207801C0.780703 0.209021 0.765067 0.217829 0.749232 0.227373C0.733398 0.236917 0.686083 0.265298 0.644087 0.290443C0.602092 0.315587 0.557311 0.342416 0.544575 0.350062C0.522143 0.363531 0.435381 0.415501 0.351663 0.465619C0.325723 0.481147 0.310204 0.489746 0.309104 0.489199C0.308151 0.488726 0.258086 0.472356 0.197847 0.452821C0.137607 0.433286 0.0878775 0.41693 0.0873355 0.416473C0.0867935 0.416016 0.13608 0.395393 0.196862 0.370642C0.30004 0.328628 0.386707 0.293318 0.580249 0.214441C0.738531 0.149934 0.761923 0.140421 0.840603 0.108565C0.884661 0.090725 0.92108 0.0763526 0.921535 0.0766241C0.921989 0.0768955 0.922142 0.0780723 0.921875 0.0792382Z" fill="white"/>
</svg>
