<svg width="1" height="1" viewBox="0 0 1 1" fill="none" xmlns="http://www.w3.org/2000/svg">
<path d="M0.102881 1H0V0.947368C0.000226782 0.743991 0.161308 0.579179 0.360082 0.578947H0.565844C0.764618 0.579179 0.925699 0.743991 0.925926 0.947368V1H0.823045V0.947368C0.822875 0.802102 0.707822 0.684385 0.565844 0.684211H0.360082C0.218104 0.684385 0.103051 0.802102 0.102881 0.947368V1ZM0.462963 0.526316C0.320914 0.526316 0.205761 0.408496 0.205761 0.263158C0.205761 0.11782 0.320914 0 0.462963 0C0.605012 0 0.720165 0.11782 0.720165 0.263158C0.719995 0.408424 0.604941 0.526142 0.462963 0.526316ZM0.462963 0.105263C0.377734 0.105263 0.308642 0.175955 0.308642 0.263158C0.308642 0.350361 0.377734 0.421053 0.462963 0.421053C0.548192 0.421053 0.617284 0.350361 0.617284 0.263158C0.617284 0.175955 0.548192 0.105263 0.462963 0.105263Z" fill="white"/>
</svg>
