<svg width="1" height="1" viewBox="0 0 1 1" fill="none" xmlns="http://www.w3.org/2000/svg">
<path fill-rule="evenodd" clip-rule="evenodd" d="M0.371655 0.000397788C0.320975 0.00442198 0.276291 0.0157119 0.212383 0.0406388C0.209397 0.0418034 0.20709 0.0432897 0.206635 0.044343C0.206217 0.0453107 0.184758 0.119057 0.158949 0.208224C0.133139 0.297391 0.111831 0.370987 0.111598 0.371772C0.111273 0.372861 0.114342 0.371933 0.124637 0.367825C0.174159 0.348062 0.221637 0.334848 0.262549 0.32944C0.270818 0.328347 0.279903 0.327969 0.298349 0.327951C0.319962 0.327931 0.324729 0.328177 0.336281 0.329905C0.381521 0.336674 0.420182 0.352741 0.47206 0.386331C0.477588 0.389911 0.482384 0.392839 0.482716 0.392839C0.483234 0.392839 0.578455 0.0666047 0.578385 0.0650734C0.578355 0.0644283 0.556146 0.0501285 0.543838 0.0428296C0.531699 0.0356317 0.508994 0.024447 0.49653 0.0195256C0.47019 0.00912521 0.44463 0.00309784 0.416832 0.00073052C0.407523 -6.22652e-05 0.380003 -0.00026513 0.371655 0.000397788ZM0.581814 0.263184C0.555824 0.352935 0.534421 0.427322 0.534253 0.428489C0.533978 0.430392 0.535206 0.431411 0.546151 0.43836C0.586629 0.464066 0.617287 0.477987 0.65315 0.486948C0.710487 0.501274 0.773201 0.496993 0.843825 0.473933C0.859137 0.468934 0.88896 0.457523 0.900023 0.452433L0.905024 0.450132L0.952642 0.285943C0.978832 0.195639 1.00014 0.121638 0.999999 0.121494C0.999855 0.121352 0.996314 0.122616 0.992131 0.124304C0.987947 0.125992 0.977427 0.129954 0.968754 0.133109C0.887824 0.162538 0.818585 0.170851 0.757829 0.158432C0.719792 0.150657 0.682189 0.134077 0.639235 0.106145C0.634039 0.102765 0.629626 0.100001 0.629428 0.100001C0.629231 0.100001 0.607804 0.173433 0.581814 0.263184ZM0.264032 0.388693C0.216211 0.391149 0.160967 0.404698 0.102825 0.428227L0.0948269 0.431465L0.0473352 0.596555C0.0212145 0.687354 -8.58313e-05 0.761741 2.60056e-07 0.761859C8.72038e-05 0.761976 0.00722171 0.759353 0.0158547 0.756027C0.0884493 0.72807 0.15262 0.716116 0.206458 0.720522C0.25873 0.724801 0.302205 0.74119 0.358759 0.777936C0.364793 0.781857 0.369828 0.784952 0.369945 0.784814C0.370064 0.784676 0.391909 0.710122 0.418491 0.619139C0.458277 0.482965 0.466623 0.453528 0.465694 0.452657C0.463627 0.45072 0.438088 0.434648 0.428243 0.429089C0.383277 0.403699 0.340839 0.390596 0.298349 0.388979C0.292255 0.388748 0.284775 0.388448 0.281728 0.388313C0.278681 0.388178 0.270718 0.38835 0.264032 0.388693ZM0.469811 0.649021C0.443689 0.738975 0.422342 0.812956 0.422373 0.813422C0.422504 0.815332 0.462662 0.839811 0.479383 0.848174C0.557293 0.887138 0.639478 0.888838 0.745428 0.853676C0.758113 0.849466 0.786188 0.839 0.791155 0.83663C0.793472 0.835524 0.794929 0.830721 0.841139 0.671796C0.867319 0.581764 0.888548 0.507913 0.888317 0.507682C0.888085 0.507451 0.881827 0.509633 0.874411 0.51253C0.825974 0.531452 0.778356 0.543739 0.735626 0.54834C0.722355 0.54977 0.683813 0.549772 0.672122 0.548345C0.622234 0.542255 0.580547 0.526225 0.531276 0.494187C0.525304 0.490305 0.519719 0.486754 0.518864 0.486299C0.517426 0.485533 0.513702 0.497887 0.469811 0.649021Z" fill="#AAAAAA"/>
</svg>
